# xmcd CD database file
#
# Track frame offsets:
#	150
#	36225
#	73557
#	112127
#	151140
#	196167
#	239280
#	285620
#
# Disc length: 4381 seconds
#
# Revision: 1
# Processed by: cddbd v1.5.1PL0 Copyright (c) Steve Scherf et al.
# Submitted via: CDex 1.51
#
DISCID=6b111b08
DTITLE=Billy Cobham, Ron Carter, Kenny Barron - The Art Of Three Live In Japan 2003 Vol 2
DYEAR=2003
DGENRE=Jazz
TTITLE0=I Mean You
TTITLE1=Out Of Nowhere
TTITLE2=Tour De Force
TTITLE3=New Waltz
TTITLE4=And Then Again
TTITLE5=I Thought About You
TTITLE6=Stella By Starlight
TTITLE7=Round Midnight
EXTD=YEAR: 2003
EXTT0=
EXTT1=
EXTT2=
EXTT3=
EXTT4=
EXTT5=
EXTT6=
EXTT7=
PLAYORDER=
